<?xml version="1.0" encoding="UTF-8"?>
<svg viewBox="0 0 744.09448819 1052.3622047" xmlns="http://www.w3.org/2000/svg">
 <g transform="matrix(.14581 0 0 .14581 963.22 1159)">
  <path d="m-4122.5-6166.1-272.97 1313.9-492.72-323.25-10.375 10.344 322.69 491.94-1311.3 272.34v23.5l1310.8 272.34-324.78 495.09 10.344 10.344 493.03-323.38 272.88 1313.8h23.5l273.03-1314.1 492.75 323.22 10.344-10.344-322.81-492.12 1311.2-272.38v-23.5l-1310.5-272.28 324.53-494.69-10.375-10.344-492.91 323.31-272.88-1313.7h-23.5zm-0.2188 119.03v1628.6l-280.16-280.25 28.969-139.38 251.19-1209zm736.97 923.69-411.25 411.25-25.875-124.53 437.12-286.72zm-1460.5 10.781 410.31 410.31-124.25 25.812-286.06-436.12zm1042 433.81 142.66 29.656 1205.7 250.5h-1628.5l280.22-280.16zm-1963.9 301.66h1628.8l-280.22 280.22-142.69-29.656-1205.9-250.56zm1666.9 20.094 280.22 280.22-28.969 139.38-251.25 1209.2v-1628.8zm437.38 257.75 286.19 436.34-410.53-410.53 124.34-25.812zm-763.09 36.062 25.844 124.56-437.19 286.78 411.34-411.34z"/>
  <g font-family="Andalus" font-size="399.18" font-weight="bold" letter-spacing="0" word-spacing="0">
   <path d="m-3979.5-6530.1c-23.317 2.1687-34.975 39.275-34.975 111.32v133.09h-15.617l-158.28-222.83v67.196c0 32.965 1.1248 57.581 3.3745 73.848 4.8321 35.637 15.491 54.49 31.978 56.561v16.434h-91.524v-16.348c23.195-3.5652 34.792-46.361 34.792-128.39v-65.942c0-9.6561-1.6771-16.108-5.0312-19.357s-11.236-5.0187-23.645-5.3114v-16.872h69.218l132.41 186.71v-52.87c-2e-4 -75.764-11.594-114.86-34.78-117.28v-16.568h92.084z"/>
  </g>
  <g font-family="Andalus" font-size="399.18" font-weight="bold" letter-spacing="0" word-spacing="0">
   <path d="m-1997.1-4399.2c-3e-4 25.891-7.34 50.6-22.019 74.128s-33.665 41.212-56.957 53.053c-20.994 10.688-43.108 16.032-66.344 16.032-33.939 1e-4 -62.378-11.467-85.317-34.402s-34.408-51.242-34.408-84.921c-1e-4 -38.17 14.129-71.71 42.388-100.62s61.554-43.362 99.887-43.362c44.213 3e-4 78.688 17.896 103.43 53.686 12.896 18.606 19.345 40.741 19.345 66.404zm-40.871 33.635c-2e-4 -22.87-4.7106-44.343-14.131-64.419-10.396-21.911-24.657-38.097-42.783-48.558-17.648-10.119-33.939-15.179-48.874-15.179-23.723 3e-4 -42.784 8.41-57.183 25.229-13.555 15.967-20.332 36.323-20.332 61.069-1e-4 33.249 9.4979 62.145 28.494 86.688 20.62 26.63 46.771 39.945 78.453 39.945 22.439 0 40.964-8.4503 55.574-25.351 13.855-16.275 20.782-36.083 20.783-59.424z"/>
  </g>
  <g font-family="Andalus" font-size="399.18" font-weight="bold" letter-spacing="0" word-spacing="0">
   <path d="m-4034.5-2329.2c-2e-4 22.602-10.432 42.048-31.296 58.34-19.012 14.919-40.079 22.378-63.2 22.378-17.339 0-37.496-4.4383-60.472-13.315v-75.322h22.147c0 19.41 4.6779 35.356 14.034 47.839 10.046 13.465 22.858 20.198 38.434 20.198 12.32 0 22.33-3.5896 30.029-10.769s11.548-16.941 11.549-29.286c-2e-4 -12.816-5.9856-24.855-17.956-36.12-5.0597-4.6778-17.177-13.392-36.351-26.143-16.446-10.923-28.685-19.816-36.717-26.679-5.9206-5.0676-10.684-11.488-14.29-19.26-3.3054-6.9192-4.9581-14.168-4.9581-21.745 0-21.221 9.8837-39.076 29.651-53.565 17.534-12.758 37.176-19.138 58.925-19.138 11.76 3e-4 28.283 3.6671 49.569 11v66.551h-22.305c-0.9991-16.892-5.3156-30.333-12.95-40.323-8.3001-10.956-18.935-16.433-31.905-16.434-9.429 2e-4 -17.319 2.8387-23.67 8.5152-6.3266 5.8883-9.4898 13.535-9.4898 22.939 0 11.971 6.895 24.141 20.685 36.51 5.3113 4.8081 17.899 13.859 37.764 27.154 17.851 11.898 29.541 20.677 35.072 26.338 11.8 11.947 17.7 25.392 17.701 40.335z"/>
  </g>
  <g font-family="Andalus" font-size="399.18" font-weight="bold" letter-spacing="0" word-spacing="0">
   <path d="m-5962.7-4501.3c-14.741 0.2602-28.799 17.181-42.174 50.763l-77.417 193.55h-17.627l-53.236-161.49c-9.1855 20.669-17.599 40.684-25.241 60.045l-39.957 101.44h-17.274l-65.284-192.59c-8.3407-24.762-16.19-40.233-23.548-46.414-3.8496-3.1914-8.8727-5.0472-15.069-5.5672v-16.641h75.261v16.848c-4.7104 0.1302-7.0656 0.9748-7.0656 2.5339 0 0.7393 0.1665 1.6042 0.4995 2.5947l56.854 176.58 27.605-77.758c9.1201-23.008 13.68-44.838 13.68-65.491-1e-4 -24.559-10.704-37.411-32.112-38.556v-16.75h76.235v16.872c-5.4822 0.1302-8.2231 0.9017-8.2229 2.3145-2e-4 0.8693 0.1663 1.7992 0.4994 2.7897l57.572 176.58 34.719-96.299c11.792-29.862 17.688-50.99 17.688-63.383-3e-4 -8.8765-2.0712-14.744-6.2128-17.603-3.728-2.6392-11.975-4.1051-24.742-4.3977v-16.872h94.569z"/>
  </g>
 </g>
</svg>
