<?xml version="1.0" encoding="UTF-8"?>
<svg viewBox="0 0 128 128" xmlns="http://www.w3.org/2000/svg" xmlns:xlink="http://www.w3.org/1999/xlink">
 <defs>
  <linearGradient id="a">
   <stop stop-color="#e2e2e2" offset="0"/>
   <stop stop-color="#cacaca" offset="1"/>
  </linearGradient>
  <radialGradient id="g" cx="63.894" cy="117.35" r="53.91" gradientTransform="matrix(1 0 0 .08642 0 107.21)" gradientUnits="userSpaceOnUse">
   <stop offset="0"/>
   <stop stop-opacity="0" offset="1"/>
  </radialGradient>
  <radialGradient id="h" cx="64" cy="30.18" r="20.898" gradientTransform="matrix(-2.1258 1.7046 -2.0193 -2.5184 261 -27.664)" gradientUnits="userSpaceOnUse" xlink:href="#a"/>
  <radialGradient id="i" cx="63.21" cy="-8.84" r="54.27" gradientTransform="matrix(1.2607 0 0 .98474 -16.476 .98607)" gradientUnits="userSpaceOnUse">
   <stop stop-color="#eee" offset="0"/>
   <stop stop-color="#eee" stop-opacity="0" offset="1"/>
  </radialGradient>
  <linearGradient id="j" x2="0" y1="8.211" y2="121.04" gradientUnits="userSpaceOnUse">
   <stop stop-color="#888" offset="0"/>
   <stop stop-color="#494949" offset="1"/>
  </linearGradient>
  <radialGradient id="k" cx="68.44" cy="25.506" r="20.898" gradientTransform="matrix(-2.1258 1.7046 -2.0193 -2.5184 261 -27.664)" gradientUnits="userSpaceOnUse" xlink:href="#a"/>
 </defs>
 <path transform="translate(1.2997 3.4536)" d="m117.8 117.35a53.91 4.6589 0 1 1 -107.82 0 53.91 4.6589 0 1 1 107.82 0z" fill="url(#g)" opacity=".443"/>
 <path transform="matrix(1.0119 0 0 1.0267 -2.135 -4.403)" d="m122.09 64.626a56.734 55.919 0 1 1 -113.47 0 56.734 55.919 0 1 1 113.47 0z" fill="url(#j)" stroke="#323232"/>
 <path transform="matrix(1.0119 0 0 1.0267 -2.135 -4.403)" d="m122.09 64.626a56.734 55.919 0 1 1 -113.47 0 56.734 55.919 0 1 1 113.47 0z" fill="none" stroke="#323232" stroke-width="3.924"/>
 <g fill="url(#h)">
  <path d="m54.447 34.591c-1.4e-5 1.0133 0.28948 2.0084 0.86848 2.9854 0.54278 0.7238 0.81419 1.7189 0.8142 2.9854-1.5e-5 1.3028-0.65138 2.3522-1.9541 3.1482-1.3027 0.79616-2.8407 1.1942-4.6138 1.1942-1.556 5.3e-5 -3.0216-0.54275-4.3967-1.6284-1.3751-1.1217-2.0626-2.6597-2.0626-4.6138-3e-6 -1.8093 0.47042-3.4196 1.4113-4.8309 0.97704-1.4112 2.515-2.9853 4.6138-4.7224 3.4739-2.8949 8.54-4.3423 15.198-4.3424 6.2965 7.3e-5 11.29 1.5561 14.981 4.6681 3.7272 3.0759 5.5908 7.2012 5.5908 12.376-4.5e-5 1.5561-0.28954 3.094-0.86848 4.6138-0.54284 1.5199-1.1761 2.8226-1.8998 3.9082-0.72378 1.0856-1.737 2.2617-3.0397 3.5282-1.3028 1.2304-2.3884 2.1893-3.2568 2.8768-0.83233 0.6514-1.9903 1.5199-3.4739 2.6054-0.97707 0.68759-1.7913 1.3389-2.4426 1.9541-0.65139 0.61521-1.357 1.4475-2.1169 2.4969-0.72376 1.0133-1.2847 2.2617-1.6827 3.7453-0.36189 1.4837-0.54283 3.1664-0.5428 5.048v2.5512c-2.6e-5 1.3751-0.25333 2.3522-0.75992 2.9311-0.47045 0.57901-1.5199 0.8685-3.1482 0.86848-1.5922 1.9e-5 -2.6236-0.28948-3.094-0.86848-0.43426-0.57897-0.65138-1.556-0.65136-2.9311v-2.7683c-1.8e-5 -1.5198 0.05426-2.8044 0.16284-3.8539 0.14473-1.0494 0.43422-2.4064 0.86848-4.071 0.47041-1.6646 1.3027-3.3472 2.4969-5.048 1.1941-1.7369 2.714-3.4558 4.5595-5.1566 2.0626-1.8093 3.5644-3.6186 4.5052-5.428 0.94082-1.8093 1.4112-4.0348 1.4113-6.6764-3.2e-5 -3.4739-0.85042-6.5678-2.5512-9.2819-1.7008-2.7139-3.7454-4.0709-6.1336-4.071-2.4245 6.9e-5 -4.5053 0.57906-6.2422 1.737-1.7008 1.1219-2.5512 2.4789-2.5512 4.071m2.4426 58.46c-1.6e-5 -1.737 0.59706-3.2025 1.7912-4.3967 1.2303-1.2303 2.714-1.8455 4.451-1.8455 1.7008 1.1e-5 3.1663 0.61518 4.3967 1.8455 1.2303 1.1942 1.8455 2.6597 1.8455 4.3967-2.9e-5 1.6646-0.6152 3.094-1.8455 4.2881-1.2304 1.1942-2.6959 1.7912-4.3967 1.7912-1.737-1e-6 -3.2206-0.59708-4.451-1.7912-1.1942-1.1942-1.7913-2.6235-1.7912-4.2881" fill="url(#k)"/>
 </g>
 <path transform="matrix(1.0119 0 0 1.0267 -2.135 -4.403)" d="m65.344 12.219c-29.448 0-53.219 23.463-53.219 52.406s23.771 52.406 53.219 52.406 53.25-23.466 53.25-52.406-23.802-52.406-53.25-52.406z" fill="none" stroke="url(#i)" stroke-width="2.079"/>
</svg>
