<?xml version="1.0" encoding="UTF-8" standalone="no"?>
<!DOCTYPE svg PUBLIC "-//W3C//DTD SVG 1.1//EN" "http://www.w3.org/Graphics/SVG/1.1/DTD/svg11.dtd">
<svg width="100%" height="100%" viewBox="0 0 435 581" version="1.1" xmlns="http://www.w3.org/2000/svg" xmlns:xlink="http://www.w3.org/1999/xlink" xml:space="preserve" xmlns:serif="http://www.serif.com/" style="fill-rule:evenodd;clip-rule:evenodd;stroke-linejoin:round;stroke-miterlimit:2;">
    <g transform="matrix(1,0,0,1,-69,-210)">
        <path d="M278.164,395.291C291.912,384.86 278.901,367.965 278.901,344.58C278.901,341.745 269.575,329.159 283.323,342.935C283.323,326.75 262.885,316.828 284.797,285.959C313.625,245.254 290.891,284.712 305.546,295.03C311.301,299.083 308.381,346.734 320.91,330.775C330.831,318.161 317.112,306.567 331.257,346.139C336.954,362.041 326.693,430.356 348.236,385.172C351.298,378.794 350.787,349.087 355.294,387.865C356.513,398.211 371.622,394.469 371.622,445.436C379.049,446.031 380.92,403.569 380.92,442.261C380.92,464.598 386.306,490.961 382.365,505.332C373.493,537.761 409.436,487.843 397.332,511.512C388.942,527.981 416.211,557.546 409.691,584.561C400.961,620.731 419.868,582.69 421.398,594.992C424.29,618.548 444.302,584.872 459.95,652.677C465.335,647.83 475.512,619.087 472.507,604.261C482.854,604.261 483.052,704.806 452.494,732.104C399.458,779.471 160.214,817.002 115.909,736.299C114.123,733.039 104.457,715.266 104.4,714.699C108,714.954 119.594,726.435 110.778,707.698C102.331,689.698 107.206,687.543 97.597,672.378C88.129,657.411 109.219,681.024 104.939,673.654C101.764,668.126 97.002,636.293 100.942,628.214C106.753,616.252 110.211,580.309 110.211,566.306C118.318,561.09 105.562,619.71 128.069,575.575C128.381,574.951 127.02,552.217 131.216,540.85C134.334,532.403 128.494,560.409 134.561,565.625C134.702,565.739 139.323,589.946 140.939,591.817C149.811,602.05 142.072,621.865 152.957,631.956C157.918,636.548 149.471,637.058 155.906,625.436C156.557,624.217 157.521,596.608 153.241,591.279C142.753,578.183 150.208,550.12 150.208,554.173C150.208,575.688 164.494,567.128 171.213,585.014C172.488,588.387 191.169,597.033 195.42,597.033C203.783,597.033 187.88,584.362 187.88,573.222C187.88,572.825 188.022,541.757 190.687,549.836C194.428,561.231 184.649,565.824 207.383,576C208.687,574.157 201.6,564.265 207.78,551.169C211.663,543.005 208.29,517.266 212.655,511.654C212.797,511.483 213.335,493.002 216,489.798C218.239,487.02 211.635,463.691 219.033,481.663C220.535,485.32 216.992,492.321 227.112,511.228C240.208,535.776 236.353,539.121 237.146,506.494C237.458,493.994 224.646,477.78 236.041,462.756C238.28,459.808 238.507,421.257 243.241,415.219C243.354,415.276 248.91,427.975 249.08,429.08C252.794,430.98 270.198,389.906 270.198,390.076C270.198,407.622 275.556,395.461 278.164,395.291Z" style="fill:rgb(252,238,94);"/>
    </g>
    <g transform="matrix(1,0,0,1,-69,-210)">
        <path d="M150.491,719.036C144.482,680.513 198.595,666.34 198.595,617.414C198.595,635.329 217.502,676.035 226.517,624.076C233.745,582.605 209.934,569.877 225.269,531.241C228.671,531.921 222.151,547.115 233.376,557.887C260.447,583.852 235.843,573.477 252.907,534.614C265.351,506.239 220.932,488.013 277.54,412.583C294.491,389.991 296.702,349.002 283.833,325.077C279.836,317.65 285.08,302.258 291.146,297.439C291.231,297.581 290.863,321.335 302.74,335.594C319.039,355.181 304.129,403.654 321.109,435.6C330.52,453.317 317.565,521.603 340.894,461.679C341.15,461.055 348.293,419.272 352.488,406.488C355.663,396.879 355.124,414.227 355.124,422.561C355.124,436.734 351.071,460.715 358.384,471.997C364.649,481.663 353.594,529.512 367.115,552.557C373.635,563.698 363.458,602.816 385.654,566.107C392.513,554.797 387.156,528.746 392.315,570.643C396.992,608.74 374.655,603.751 397.814,646.498C398.466,647.745 397.729,672.661 398.013,676.8C415.417,685.134 437.074,642.331 423.723,615.969C417.402,603.468 464.428,627.874 442.913,708.718C424.998,776.098 323.178,773.405 301.691,782.617C246.501,806.202 182.693,758.211 146.324,761.953C123.506,764.277 137.424,699.477 120.643,683.802C89.235,654.35 129.033,605.339 129.033,577.616C129.033,603.043 153.099,625.975 122.967,654.69C118.743,658.715 144.113,715.776 150.491,719.036Z" style="fill:rgb(255,237,0);fill-opacity:0.5;"/>
    </g>
    <g transform="matrix(1,0,0,1,-69,-210)">
        <path d="M150.378,718.98C144.397,680.457 198.369,666.283 198.369,617.386C198.369,635.272 217.219,675.978 226.233,624.019C233.405,582.576 209.679,569.849 224.986,531.213C228.359,531.893 221.868,547.087 233.065,557.858C260.05,583.824 235.502,573.449 252.539,534.586C264.926,506.211 220.649,487.984 277.115,412.554C294.009,389.962 296.249,349.002 283.38,325.077C279.411,317.65 284.627,302.258 290.693,297.439C290.75,297.581 290.409,321.335 302.258,335.594C318.501,355.181 303.619,403.654 320.542,435.572C329.953,453.288 317.027,521.575 340.299,461.65C340.554,461.027 347.698,419.244 351.865,406.46C355.039,396.85 354.472,414.198 354.472,422.532C354.472,436.706 350.447,460.687 357.761,471.969C363.997,481.635 352.97,529.483 366.435,552.529C372.954,563.669 362.806,602.759 384.945,566.079C391.776,554.74 386.447,528.718 391.578,570.614C396.255,608.712 373.975,603.694 397.077,646.441C397.729,647.688 396.992,672.605 397.276,676.743C414.652,685.077 436.224,642.274 422.901,615.912C416.608,603.439 463.521,627.846 442.063,708.661C409.096,832.876 181.531,758.239 146.239,761.868C123.477,764.22 137.339,699.42 120.614,683.745C89.263,654.293 129.005,605.282 129.005,577.559C129.005,602.986 152.986,625.918 122.91,654.661C118.715,658.687 144.028,715.72 150.378,718.98Z" style="fill:rgb(227,30,36);"/>
    </g>
    <g transform="matrix(1,0,0,1,-69,-210)">
        <path d="M172.658,733.975C172.658,707.301 154.035,693.581 162.142,657.553C164.92,645.109 157.124,651.146 168.265,632.438C170.674,628.384 168.605,634.989 168.605,643.408C168.605,668.324 183.685,638.277 183.685,629.915C183.685,612.567 177.052,598.28 177.307,575.603C177.392,566.929 155.764,527.698 165.118,519.165C165.6,518.712 163.389,541.871 178.044,560.835C180.028,563.443 195.959,581.187 197.49,582.094C198.964,567.326 184.592,549.043 192.274,516.841C192.557,515.65 192.104,476.872 194.854,506.069C196.413,522.794 204.35,536.683 212.088,550.942C221.896,569.027 231.591,553.153 247.011,572.542C252,578.806 248.202,563.074 245.225,557.858C229.918,531.014 244.885,513.893 237.969,478.148C236.608,471.061 245.707,437.074 245.707,453.317C245.707,474.321 257.159,499.606 274.791,511.002C293.244,522.907 288.057,545.499 303.052,514.942C309.742,501.279 293.669,469.02 318.076,444.671C327.685,435.061 320.513,399.798 326.183,425.594C331.115,448.072 321.987,447.08 336.699,471.061C344.324,483.449 328.847,536.031 361.871,502.781C363.572,501.08 385.654,456.208 388.063,449.405C390.643,442.205 388.063,419.981 388.885,464.145C389.169,480.331 370.091,487.899 382.762,527.471C386.957,540.624 383.443,555.25 391.578,579.543C398.409,599.839 377.717,597.6 394.781,633.742C401.556,648.085 383.811,663.562 421.002,635.244C426.954,630.709 444.898,603.581 430.98,628.894C405.496,675.184 423.354,687.657 419.301,695.339C414.68,704.041 412.781,696.954 405.213,715.606C399.543,729.609 392.57,722.438 381.26,746.617C374.57,760.847 363.345,751.833 344.239,758.268C322.866,765.468 305.887,770.627 283.805,775.559C273.26,777.94 249.477,778.337 239.981,773.15C228.217,766.743 172.658,749.906 172.658,733.975Z" style="fill:rgb(227,30,36);"/>
    </g>
    <g transform="matrix(1,0,0,1,-69,-210)">
        <path d="M143.546,744.69C149.556,744.123 130.195,724.025 130.337,704.835C130.479,689.244 123.194,660.501 135.043,651.458C135.298,651.742 138.869,668.409 139.918,671.017C144.312,682.186 143.036,672.888 146.438,657.893C155.027,619.795 155.849,624.813 155.282,584.646C155.027,566.844 159.25,570.132 155.424,546.293C152.816,529.994 169.313,497.509 164.183,513.269C157.124,534.756 171.524,557.858 184.11,573.732C184.28,573.931 188.05,538.413 192.217,526.309C201.09,500.542 185.414,475.002 185.414,463.323C185.414,488.438 206.447,498.954 209.339,517.465C209.339,517.521 217.247,533.906 216.709,521.32C216.482,515.792 224.249,483.222 224.249,472.252C224.249,446.74 223.909,452.381 231.449,427.918C233.83,420.236 230.173,437.896 234.057,448.724C241.427,469.304 253.389,473.924 266.003,493.597C274.025,506.154 311.556,486.17 318.699,473.074C335.962,441.439 356.202,440.589 351.694,408.161C350.079,407.339 351.269,413.15 349.909,419.754C344.721,444.359 340.583,458.759 347.046,484.781C348.973,492.576 345.912,489.231 351.496,499.294C362.494,519.165 340.271,514.573 359.461,492.35C375.137,474.236 417.288,432.992 417.288,406.913C418.819,422.617 397.361,453.146 406.545,496.942C409.323,510.18 406.091,557.065 401.641,570.217C396.425,585.666 431.405,532.658 433.984,528.151C447.704,504.425 446.343,508.394 442.46,534.274C437.726,565.739 420.746,560.466 440.759,599.839C445.408,608.967 442.375,634.479 443.367,646.214C456.888,626.74 481.946,606.274 491.102,591.024C494.759,593.376 475.54,632.183 483.08,653.528C496.545,691.795 453.6,706.904 436.564,732.954C419.754,758.608 401.896,751.38 379.417,767.594C344.551,792.68 329.924,785.65 284.202,785.31C274.082,785.254 267.987,780.633 248.939,780.633C230.882,780.633 139.635,773.603 139.635,751.124C139.635,749.083 140.91,744.945 143.546,744.69Z" style="fill:rgb(239,127,26);"/>
    </g>
    <g transform="matrix(1,0,0,1,-69,-210)">
        <path d="M234.652,767.82C228.274,730.828 220.847,756.113 220.847,702.51C220.847,669.657 218.013,695.594 227.452,704.239C234.397,710.646 230.23,713.197 230.995,693.524C231.364,684.17 240.803,673.682 240.038,645.987C240.038,645.817 245.48,588.501 244.857,611.943C244.743,616.082 250.838,636.917 253.531,634.45C272.211,617.471 278.731,569.395 277.852,544.791C277.654,539.603 288.652,519.789 288.652,506.551C288.652,526.422 293.613,533.225 292.847,548.901C292.847,548.986 296.05,570.586 300.954,549.553C306.51,525.657 315.638,520.101 315.638,497.594C315.638,530.249 314.787,559.417 327.657,589.663C334.176,604.998 326.353,591.874 340.243,561.543C352.063,535.72 330.888,578.58 335.452,594.992C342.935,621.893 341.433,625.38 341.433,653.584C341.433,675.751 350.674,669.033 353.083,650.75C353.594,646.866 364.479,616.167 353.594,652.507C353.509,652.819 351.723,670.876 351.553,672.35C350.107,684.85 343.843,696.813 343.843,714.954C343.843,725.131 340.299,741.883 354.699,724.309C354.869,727.37 335.169,764.249 319.238,764.249C300.586,764.249 320.372,777.543 286.781,773.15C272.948,771.335 247.181,778.677 237.345,768.557L234.652,767.82Z" style="fill:rgb(252,238,94);"/>
    </g>
    <g transform="matrix(1,0,0,1,-69,-210)">
        <path d="M209.452,733.38C198.709,716.088 209.452,695.225 209.452,676.148C209.452,677.452 217.587,710.277 216,681.591C215.121,665.745 224.419,666.028 218.75,634.932C217.106,625.918 216.652,602.079 221.641,628.894C221.698,629.065 235.134,670.507 235.247,670.649C235.361,670.507 248.4,630.312 250.838,624.898C257.102,611.065 256.847,612.142 256.847,597.543C256.847,617.216 253.332,638.362 257.329,657.581C259.483,667.757 257.244,668.041 262.035,682.98C266.287,696.217 271.247,729.893 271.247,729.694C271.247,720.68 286.639,687.912 280.8,717.676C279.694,723.317 276.69,726.406 274.706,738.652C273.231,747.609 266.173,761.981 256.535,761.839C239.216,761.613 234.057,776.154 219.685,763.54C219.175,763.087 210.501,767.849 197.858,747.723C195.42,743.839 193.238,733.124 193.238,728.249C196.923,756.34 231.307,768.671 209.452,733.38Z" style="fill:rgb(227,30,36);"/>
    </g>
    <g transform="matrix(1,0,0,1,-69,-210)">
        <path d="M237.345,768.557C229.408,759.969 237.883,684.595 240.803,695.991C247.635,722.806 253.389,666.68 256.054,662.513C259.625,656.844 271.247,622.545 271.247,616.11C271.247,586.375 272.239,653.811 278.589,615.458C282.387,592.611 293.301,591.364 293.301,559.049C293.301,534.983 301.833,526.791 301.833,497.934C301.833,480.671 304.328,463.294 310.961,447.846C309.317,446.485 311.443,491.584 315.638,494.249C316.715,476.929 329.839,460.233 327.657,428.655C327.543,426.954 333.638,398.154 333.638,415.049C333.638,435.798 333.609,452.891 333.043,473.641C332.816,482.315 340.441,516.529 340.243,513.298C340.243,513.184 346.592,495.213 347.301,491.811C351.836,470.013 348.123,516.472 349.682,522.85C350.391,525.713 360.539,565.767 360.652,565.88C365.471,564.973 369.043,540.283 369.043,563.641C369.043,575.008 366.746,623.764 370.545,630.283C375.562,638.957 360.822,662.967 380.381,638.532C382.422,636.009 377.433,663.25 377.433,672.35C377.433,692.22 370.517,702.85 369.156,726.066C366.718,767.197 319.833,780.463 286.838,780.463C273.487,780.463 247.096,779.102 237.345,768.557Z" style="fill:rgb(255,237,0);"/>
    </g>
    <g transform="matrix(1,0,0,1,-69,-210)">
        <path d="M309.345,754.356C329.414,728.362 329.556,704.268 344.75,674.277C345.77,672.236 356.457,617.159 356.457,644.598C356.457,682.583 353.934,669.345 372.302,637.2C376.583,629.745 388.233,602.419 388.233,593.008C388.233,557.206 393.676,576.057 387.241,602.306C386.249,606.416 383.216,661.238 385.2,661.153C392.542,660.784 416.381,611.008 419.386,601.88C430.923,567.099 438.576,568.091 467.093,555.676C468.765,557.745 455.669,560.353 455.499,570.557C455.443,574.469 449.518,593.688 452.891,604.488C455.074,611.49 445.975,606.841 446.457,624.501C446.627,631.559 438.066,645.222 439.909,651.288C450.17,644.031 438.803,658.375 438.094,672.945C437.726,680.287 392.854,716.258 391.351,721.644C382.394,753.902 379.474,726.123 387.865,731.509C390.926,733.465 392.57,741.458 385.342,745.795C361.616,760.082 356.74,764.816 326.891,766.658C317.594,767.225 318.869,747.269 309.345,754.356Z" style="fill:rgb(239,127,26);"/>
    </g>
    <g transform="matrix(1,0,0,1,-69,-210)">
        <path d="M255.685,716.854C237.231,678.274 242.079,689.896 263.65,716.315C269.235,723.146 265.833,710.107 265.833,699.846C265.833,676.545 279.043,664.809 279.043,634.989C279.043,639.298 283.039,679.408 285.987,681.902C290.636,674.079 306.057,633.742 306.057,623.197C306.057,593.83 311.754,589.776 318.756,566.504C309.175,588.444 318.501,628.611 314.447,643.039C314.107,644.202 340.271,604.857 340.838,600.491C343.446,581.329 345.6,595.106 341.093,607.436C331.002,634.961 341.433,676.091 339.052,681.449C334.205,692.277 377.603,651.685 354.359,684.85C342.057,702.397 350.986,713.509 342.794,737.915C337.975,752.315 345.203,750.331 324.652,764.107C260.249,807.165 265.691,737.745 255.685,716.854Z" style="fill:rgb(227,30,36);"/>
    </g>
    <g transform="matrix(1,0,0,1,-69,-210)">
        <path d="M185.216,458.759C185.046,456.18 184.394,455.811 182.75,453.742C180.255,450.624 176.031,444.416 172.545,443.509C169.909,442.828 173.906,444.161 174.246,447.08C174.926,453.09 173.424,452.268 176.627,459.043C178.186,462.302 180.907,463.833 184.28,463.068C185.357,462.813 185.272,459.609 185.216,458.759Z" style="fill:rgb(239,127,26);"/>
    </g>
    <g transform="matrix(1,0,0,1,-69,-210)">
        <path d="M206.702,459.808C207.723,457.2 209.424,450.17 208.006,447.676C205.767,443.764 204.435,442.8 204.321,438.038C204.293,437.131 203.131,441.694 202.649,442.545C199.247,448.696 203.641,453.203 206.164,458.107C206.561,458.872 207.014,458.986 206.702,459.808Z" style="fill:rgb(239,127,26);"/>
    </g>
    <g transform="matrix(1,0,0,1,-69,-210)">
        <path d="M229.209,408.671C254.494,380.608 231.676,363.713 231.676,335.055C231.676,327.685 230.06,349.852 227.027,354.643C219.543,366.576 229.663,384.35 225.581,397.559C225.241,398.721 224.079,408.671 229.209,408.671Z" style="fill:rgb(239,127,26);"/>
    </g>
    <g transform="matrix(1,0,0,1,-69,-210)">
        <path d="M379.871,371.14C380.069,323.263 407.083,301.408 398.778,269.915C397.757,265.975 399.345,238.932 400.791,263.169C401.046,267.704 405.836,280.12 406.828,290.126C407.934,301.068 410.031,292.422 407.027,310.309C402.293,338.57 412.271,339.761 390.076,362.721C387.78,365.102 383.187,376.951 379.871,371.14Z" style="fill:rgb(239,127,26);"/>
    </g>
    <g transform="matrix(1,0,0,1,-69,-210)">
        <path d="M309.09,281.764C313.172,285.194 315.638,263.962 313.002,256.592C309.77,247.521 311.471,231.109 317.395,223.965C315.553,223.115 307.162,233.972 307.276,242.731C307.446,253.191 304.469,260.504 304.271,270.51C304.243,272.721 307.701,280.602 309.09,281.764Z" style="fill:rgb(239,127,26);"/>
    </g>
    <g transform="matrix(1,0,0,1,-69,-210)">
        <path d="M352.12,301.89C354.472,286.838 348.718,284.428 349.257,275.102C349.483,271.417 348.236,283.351 346.139,286.668C344.324,289.587 352.488,299.565 352.12,301.89Z" style="fill:rgb(239,127,26);"/>
    </g>
    <g transform="matrix(1,0,0,1,-69,-210)">
        <path d="M136.29,529.512C140.003,509.669 136.29,487.956 136.29,500.967C136.29,502.639 118.261,535.011 132.69,533.339C135.298,533.027 135.865,531.751 136.29,529.512Z" style="fill:rgb(239,127,26);"/>
    </g>
    <g transform="matrix(1,0,0,1,-69,-210)">
        <path d="M440.164,556.583C447.137,535.465 432.935,556.923 452.92,531.751C456.35,527.443 456.69,488.466 456.69,502.696C456.69,521.291 465.222,539.291 453.09,551.509C448.554,556.072 446.655,556.583 440.164,556.583Z" style="fill:rgb(239,127,26);"/>
    </g>
    <g transform="matrix(1,0,0,1,-69,-210)">
        <path d="M396.113,496.29C386.731,482.315 403.88,484.214 403.88,460.148C404.504,460.148 416.665,488.013 396.113,496.29Z" style="fill:rgb(239,127,26);"/>
    </g>
    <g transform="matrix(1,0,0,1,-69,-210)">
        <path d="M232.668,274.422C242.957,255.997 226.998,240.038 226.998,218.863C226.998,197.802 217.162,234.68 222.633,248.031C224.759,253.191 220.507,269.291 232.668,274.422Z" style="fill:rgb(239,127,26);"/>
    </g>
    <g transform="matrix(1,0,0,1,-69,-210)">
        <path d="M184.706,346.365C189.893,335.31 177.194,328.904 177.194,313.852C177.194,322.413 169.852,339.506 180.794,341.717C182.296,342.028 184.535,346.734 184.706,346.365Z" style="fill:rgb(239,127,26);"/>
    </g>
    <g transform="matrix(1,0,0,1,-69,-210)">
        <path d="M458.816,443.339C468.397,442.063 456.293,407.565 458.816,443.339Z" style="fill:rgb(239,127,26);"/>
    </g>
    <g transform="matrix(1,0,0,1,-69,-210)">
        <path d="M427.691,408.671C443.395,401.726 431.773,374.627 430.356,403.143C430.186,406.261 430.724,407.339 427.691,408.671Z" style="fill:rgb(239,127,26);"/>
    </g>
    <g transform="matrix(1,0,0,1,-69,-210)">
        <path d="M394.214,402.208C405.609,389.254 381.43,377.376 392.712,398.211C394.214,401.017 394.129,402.293 394.214,402.208Z" style="fill:rgb(239,127,26);"/>
    </g>
    <g transform="matrix(1,0,0,1,-69,-210)">
        <path d="M151.654,394.554C139.946,393.052 136.176,390.983 146.211,406.403C153.496,417.6 150.548,399.061 146.268,396.227L151.654,394.554Z" style="fill:rgb(239,127,26);"/>
    </g>
    <g transform="matrix(1,0,0,1,-69,-210)">
        <path d="M100.12,478.205C103.805,485.773 87.506,464.598 92.806,473.924C94.961,477.751 105.676,489.657 100.12,478.205Z" style="fill:rgb(239,127,26);"/>
    </g>
    <g transform="matrix(1,0,0,1,-69,-210)">
        <path d="M96.718,515.197C95.244,515.169 70.413,511.058 86.598,518.428C88.299,519.194 95.159,519.959 96.718,515.197Z" style="fill:rgb(239,127,26);"/>
    </g>
    <g transform="matrix(1,0,0,1,-69,-210)">
        <path d="M181.672,466.441C181.502,463.861 180.85,463.465 179.178,461.424C176.627,458.277 172.346,452.041 168.803,451.134C166.139,450.454 170.192,451.786 170.532,454.734C171.213,460.743 169.682,459.921 172.97,466.724C174.557,469.984 177.279,471.515 180.709,470.75C181.814,470.494 181.729,467.291 181.672,466.441Z" style="fill:rgb(252,238,94);"/>
    </g>
    <g transform="matrix(1,0,0,1,-69,-210)">
        <path d="M203.471,467.49C204.491,464.854 206.22,457.824 204.775,455.329C202.535,451.417 201.175,450.454 201.033,445.691C201.005,444.756 199.843,449.348 199.361,450.198C195.902,456.35 200.353,460.885 202.904,465.761C203.301,466.554 203.783,466.668 203.471,467.49Z" style="fill:rgb(252,238,94);"/>
    </g>
    <g transform="matrix(1,0,0,1,-69,-210)">
        <path d="M226.261,416.239C251.943,388.12 228.784,371.169 228.784,342.482C228.784,335.055 227.14,357.279 224.079,362.098C216.482,374.031 226.772,391.861 222.605,405.099C222.236,406.261 221.102,416.239 226.261,416.239Z" style="fill:rgb(252,238,94);"/>
    </g>
    <g transform="matrix(1,0,0,1,-69,-210)">
        <path d="M379.077,378.624C379.304,330.661 406.687,308.75 398.296,277.2C397.247,273.231 398.863,246.161 400.309,270.425C400.564,274.989 405.439,287.405 406.431,297.439C407.537,308.409 409.691,299.735 406.658,317.65C401.839,345.997 411.959,347.159 389.452,370.205C387.128,372.586 382.479,384.463 379.077,378.624Z" style="fill:rgb(252,238,94);"/>
    </g>
    <g transform="matrix(1,0,0,1,-69,-210)">
        <path d="M307.304,289.077C311.443,292.507 313.965,271.247 311.272,263.849C307.984,254.75 309.713,238.309 315.751,231.137C313.88,230.315 305.348,241.172 305.461,249.931C305.631,260.419 302.627,267.761 302.428,277.767C302.4,280.006 305.887,287.915 307.304,289.077Z" style="fill:rgb(252,238,94);"/>
    </g>
    <g transform="matrix(1,0,0,1,-69,-210)">
        <path d="M350.957,309.231C353.31,294.151 347.499,291.713 348.038,282.387C348.265,278.674 346.989,290.665 344.891,293.981C343.02,296.901 351.326,306.907 350.957,309.231Z" style="fill:rgb(252,238,94);"/>
    </g>
    <g transform="matrix(1,0,0,1,-69,-210)">
        <path d="M132.038,537.335C135.808,517.436 132.038,495.666 132.038,508.734C132.038,510.406 113.754,542.863 128.381,541.162C131.017,540.85 131.613,539.575 132.038,537.335Z" style="fill:rgb(252,238,94);"/>
    </g>
    <g transform="matrix(1,0,0,1,-69,-210)">
        <path d="M440.249,564.463C447.335,543.288 432.907,564.803 453.203,539.575C456.69,535.266 457.002,496.205 457.002,510.463C457.002,529.087 465.676,547.115 453.345,559.361C448.781,563.924 446.825,564.463 440.249,564.463Z" style="fill:rgb(252,238,94);"/>
    </g>
    <g transform="matrix(1,0,0,1,-69,-210)">
        <path d="M395.575,504.028C386.05,490.054 403.455,491.924 403.455,467.802C404.079,467.802 416.438,495.751 395.575,504.028Z" style="fill:rgb(252,238,94);"/>
    </g>
    <g transform="matrix(1,0,0,1,-69,-210)">
        <path d="M229.776,281.679C240.236,263.254 224.05,247.238 224.05,226.035C224.05,204.945 214.072,241.88 219.628,255.26C221.783,260.419 217.446,276.576 229.776,281.679Z" style="fill:rgb(252,238,94);"/>
    </g>
    <g transform="matrix(1,0,0,1,-69,-210)">
        <path d="M181.162,353.792C186.406,342.709 173.537,336.302 173.537,321.222C173.537,329.811 166.082,346.932 177.194,349.143C178.696,349.455 180.992,354.161 181.162,353.792Z" style="fill:rgb(252,238,94);"/>
    </g>
    <g transform="matrix(1,0,0,1,-69,-210)">
        <path d="M459.156,450.964C468.879,449.688 456.605,415.134 459.156,450.964Z" style="fill:rgb(252,238,94);"/>
    </g>
    <g transform="matrix(1,0,0,1,-69,-210)">
        <path d="M427.606,416.239C443.509,409.294 431.745,382.11 430.299,410.712C430.129,413.83 430.696,414.907 427.606,416.239Z" style="fill:rgb(252,238,94);"/>
    </g>
    <g transform="matrix(1,0,0,1,-69,-210)">
        <path d="M393.647,409.748C405.213,396.765 380.665,384.86 392.117,405.751C393.647,408.557 393.562,409.861 393.647,409.748Z" style="fill:rgb(252,238,94);"/>
    </g>
    <g transform="matrix(1,0,0,1,-69,-210)">
        <path d="M147.628,402.066C135.751,400.564 131.953,398.494 142.101,413.943C149.471,425.169 146.523,406.63 142.157,403.767L147.628,402.066Z" style="fill:rgb(252,238,94);"/>
    </g>
    <g transform="matrix(1,0,0,1,-69,-210)">
        <path d="M95.386,485.915C99.071,493.483 82.573,472.28 87.931,481.635C90.142,485.461 100.998,497.367 95.386,485.915Z" style="fill:rgb(252,238,94);"/>
    </g>
    <g transform="matrix(1,0,0,1,-69,-210)">
        <path d="M91.899,522.992C90.425,522.964 65.225,518.825 81.638,526.224C83.367,526.989 90.34,527.754 91.899,522.992Z" style="fill:rgb(252,238,94);"/>
    </g>
</svg>
