<?xml version="1.0" encoding="UTF-8" standalone="no"?>
<!DOCTYPE svg PUBLIC "-//W3C//DTD SVG 1.1//EN" "http://www.w3.org/Graphics/SVG/1.1/DTD/svg11.dtd">
<svg width="100%" height="100%" viewBox="0 0 235 224" version="1.1" xmlns="http://www.w3.org/2000/svg" xmlns:xlink="http://www.w3.org/1999/xlink" xml:space="preserve" xmlns:serif="http://www.serif.com/" style="fill-rule:evenodd;clip-rule:evenodd;">
    <g transform="matrix(1,0,0,1,-324,-95)">
        <g id="svg_29" transform="matrix(-0.124747,-0.124747,0.297227,-0.297227,340.169,348.547)">
            <path id="svg_27" d="M58.955,347.234C-9.038,242.851 73.06,233.528 52.119,90.624C103.476,158.041 117.815,240.735 139.375,265.194C154.256,284.403 161.594,307.589 159.594,331.411C159.392,350.265 183.219,373.11 176.704,390.712C142.06,362.963 82.471,381.05 58.955,347.234L58.955,347.234Z" style="fill:rgb(231,57,0);"/>
            <path id="svg_26" d="M161.781,377.714C162.174,357.723 137.985,349.051 128.255,333.439C112.14,321.514 107.035,302.952 106.68,284.673C105.37,255.44 131.428,81.131 169.391,34.317C154.842,106.203 190.96,201.96 213.274,233.638C228.373,258.252 234.05,286.591 228.611,314.476C225.939,336.723 207.51,350.091 197.54,370.045C187.568,382.062 173.996,383.2 161.781,377.714Z" style="fill:rgb(231,57,0);"/>
            <path id="svg_25" d="M175.561,387.493C181.347,370.126 169.896,342.598 166.29,326.49C156.506,311.987 157.452,294.474 162.164,278.413C169.101,252.538 170.246,130.432 282.189,73.091C195.372,158.273 253.019,227.502 262.417,260.836C267.907,286.169 265.101,312.573 252.72,335.356C235.626,366.81 189.986,384.145 175.561,387.493L175.561,387.493Z" style="fill:rgb(231,57,0);"/>
            <path id="svg_24" d="M157.116,377.313C157.413,360.993 139.117,353.914 131.757,341.168C119.568,331.433 115.707,316.279 115.438,301.356C114.448,277.49 138.764,151.31 158.265,96.969C144.958,220.148 179.186,233.83 196.064,259.692C207.485,279.786 211.779,302.922 207.665,325.686C205.644,343.849 196.931,360.404 189.39,376.693C181.847,386.504 166.355,381.792 157.116,377.313L157.116,377.313Z" style="fill:rgb(231,140,0);"/>
            <path id="svg_23" d="M86.963,353.927C17.122,282.222 93.22,277.228 73.85,178.752C96.853,225.168 115.928,260.038 124.304,292.996C136.7,304.634 179.53,375.679 176.963,388.559C149.97,373.193 107.073,374.573 86.963,353.927L86.963,353.927Z" style="fill:rgb(231,140,0);"/>
            <path id="svg_22" d="M100.91,349.609C59.132,309.95 90.332,286.664 89.958,237.129C101.508,280.482 138.038,291.164 137.569,317.207C143.604,324.997 175.203,380.551 172.561,387.69C158.511,376.436 116.739,364.635 100.91,349.609L100.91,349.609Z" style="fill:rgb(231,225,0);"/>
            <path id="svg_21" d="M168.065,344.264C160.724,333.382 161.434,320.242 164.969,308.191C170.174,288.777 193.041,180.867 225.707,157.396C202.116,201.757 233.137,269.993 240.189,295.004C244.308,314.011 245.46,336.494 232.913,350.916C213.957,372.703 190.031,385.391 176.623,388.433C168.099,394.414 170.77,356.349 168.065,344.264L168.065,344.264Z" style="fill:rgb(231,140,0);"/>
            <path id="svg_20" d="M156.263,378.508C156.852,368.523 145.827,363.731 141.64,355.744C134.421,349.479 132.435,340.104 132.644,330.961C132.634,316.324 132.134,225.085 150.67,202.403C142.466,238.059 173.361,291.211 183.048,307.467C189.539,320.055 191.589,334.327 188.502,348.162C186.81,359.232 181.062,369.15 176.038,378.935C171.175,384.753 161.808,381.481 156.263,378.508L156.263,378.508Z" style="fill:rgb(231,225,0);"/>
            <path id="svg_19" d="M165.08,379.783C169.825,372.832 163.942,364.604 164.376,357.028C161.877,349.382 164.5,341.758 168.607,335.249C174.932,324.682 186.049,246.148 209.24,237.799C187.891,259.982 224.963,319.294 224.921,335.217C224.158,347.11 209.691,363.183 201.476,371.832C195.466,379.089 183.571,386.063 175.712,390.951C169.685,387.287 167.795,384.328 165.08,379.783Z" style="fill:rgb(231,225,0);"/>
            <path id="svg_18" d="M157.079,371.835C142.323,348.593 147.798,322.665 154.073,294.384C156.932,313.573 168.84,336.859 175.571,344.496C180.217,350.493 182.509,357.732 181.884,365.17C181.821,371.056 178.833,378.189 176.799,383.684C165.982,375.021 164.422,382.393 157.079,371.835L157.079,371.835Z" style="fill:rgb(255,255,158);"/>
            <path id="svg_17" d="M173.667,360.308C185.099,335.263 173.782,315.546 199.982,295.899C192.158,314.113 210.051,342.874 208.104,352.847C204.83,369.619 182.219,382.101 176.503,383.394C177.865,369.603 168.823,372.22 173.667,360.308L173.667,360.308Z" style="fill:rgb(255,255,158);"/>
        </g>
        <g id="svg_1" transform="matrix(0.700667,0.713489,-0.713489,0.700667,265.34,-293.148)">
            <path id="path3217" d="M481.668,67.248C473.644,74.191 411.969,132.377 458.686,243.805L505.399,243.805C552.116,132.378 490.441,74.2 482.417,67.257L481.668,67.248L481.668,67.248Z" style="fill:rgb(236,236,236);stroke:black;stroke-width:3px;"/>
            <path id="path3219" d="M483.602,139.39C473.884,139.39 465.979,147.991 465.979,158.556C465.979,169.121 473.884,177.714 483.602,177.714C493.321,177.714 501.234,169.121 501.234,158.556C501.234,147.991 493.321,139.39 483.602,139.39ZM483.602,141.656C492.193,141.656 499.149,149.218 499.149,158.556C499.149,167.895 492.193,175.448 483.602,175.448C475.012,175.448 468.064,167.895 468.064,158.556C468.064,149.218 475.012,141.656 483.602,141.656Z" style="fill:rgb(204,204,204);fill-rule:nonzero;"/>
            <path id="path2419" d="M450.565,112.996L461.884,90.388L477.679,70.928L482.154,67.208L499.002,86.381L512.164,109.561L513.217,114.426L450.301,114.14" style="fill:rgb(255,0,0);stroke:black;stroke-width:3px;"/>
            <path id="path2408" d="M444.247,199.134C444.247,199.134 416.343,198.756 433.19,275.828C433.19,275.828 434.77,211.474 449.512,219.408" style="fill:rgb(255,0,0);stroke:black;stroke-width:3px;"/>
            <path id="path2410" d="M519.919,199.134C519.919,199.134 547.823,198.756 530.976,275.828C530.976,275.828 529.396,211.474 514.654,219.408" style="fill:rgb(255,0,0);stroke:black;stroke-width:3px;"/>
            <path id="path2423" d="M451.881,228.037L458.725,243.777L505.583,243.491L511.111,228.037L451.881,228.037L451.881,228.037Z" style="fill:rgb(179,179,179);stroke:black;stroke-width:3px;"/>
            <path id="path3209" d="M526.379,206.86L521.114,221.169L517.956,218.307L514.27,220.024L519.272,198.561L528.222,203.426C528.222,203.426 543.754,215.159 531.644,273.539C538.752,213.156 526.116,206.86 526.379,206.86L526.379,206.86Z" style="fill:rgb(210,0,0);"/>
            <path id="path3213" d="M432.401,274.97C432.401,274.97 429.779,212.54 447.669,212.298C449.643,212.271 449.512,219.166 449.512,219.166L442.404,220.883L436.876,239.77L432.401,274.97L432.401,274.97Z" style="fill:rgb(210,0,0);"/>
            <path id="path3232" d="M493.943,228.039C494.999,231.498 495.623,236.324 495.319,243.204C495.544,243.29 495.782,243.411 496.028,243.549L505.58,243.487L510.035,231.04C509.855,229.976 509.648,229.027 509.449,228.039L493.943,228.039Z" style="fill:rgb(153,153,153);"/>
            <path id="path3227" d="M487.16,197.826C485.383,197.683 484.261,197.985 484.261,197.985L482.941,220.021C482.941,220.021 489.283,218.659 492.274,228.041L507.812,228.041C502.766,202.457 492.263,198.237 487.16,197.826Z" style="fill:rgb(204,204,204);"/>
            <path id="path3241" d="M452.622,229.319L457.834,243.483L465.13,244.05L463.046,227.902L452.622,229.319Z" style="fill:rgb(204,204,204);"/>
            <path id="path2394" d="M450.565,113.568L512.427,113.568" style="fill:none;stroke:black;stroke-width:3px;"/>
            <path id="path2400" d="M498.627,156.855C498.627,166.745 491.141,174.884 482.043,174.884C472.945,174.884 465.458,166.745 465.458,156.855C465.458,146.965 472.945,138.826 482.043,138.826C491.141,138.826 498.627,146.965 498.627,156.855L498.627,156.855Z" style="fill:rgb(179,179,179);fill-rule:nonzero;stroke:black;stroke-width:3px;stroke-linecap:round;"/>
            <path id="path2402" d="M492.836,156.855C492.836,163.291 487.964,168.588 482.043,168.588C476.122,168.588 471.25,163.291 471.25,156.855C471.25,150.418 476.122,145.122 482.043,145.122C487.964,145.122 492.836,150.418 492.836,156.855L492.836,156.855Z" style="fill:rgb(128,229,255);fill-rule:nonzero;stroke:black;stroke-width:3px;stroke-linecap:round;"/>
            <path id="path2417" d="M452.671,228.323L511.111,228.323" style="fill:none;stroke:black;stroke-width:3px;"/>
            <rect id="rect2414" x="479.673" y="198.561" width="4.738" height="77.267" style="fill:rgb(255,0,0);fill-rule:nonzero;stroke:black;stroke-width:3px;stroke-linecap:round;"/>
            <path id="path2425" d="M508.479,224.603C508.479,224.603 529.538,171.947 512.691,121.295C513.48,211.153 490.841,224.603 490.841,224.603L508.479,224.603Z" style="fill:rgb(204,204,204);"/>
            <g id="rect2429" transform="matrix(0.183435,0.201227,-0.183435,0.201227,291.747,87.8477)">
                <rect x="672.605" y="-389.67" width="34.47" height="83.714" style="fill:white;"/>
            </g>
            <path id="path2431" d="M492.836,156.855C492.836,163.291 487.964,168.588 482.043,168.588C476.122,168.588 471.25,163.291 471.25,156.855C471.25,150.418 476.122,145.122 482.043,145.122C487.964,145.122 492.836,150.418 492.836,156.855L492.836,156.855Z" style="fill:none;fill-rule:nonzero;stroke:black;stroke-width:3px;stroke-linecap:round;"/>
            <path id="path2437" d="M506.109,109.275C506.109,109.275 497.949,86.095 482.417,73.79C496.633,103.552 489.262,109.275 489.262,109.275L506.109,109.275Z" style="fill:rgb(210,0,0);"/>
            <path id="path3211" d="M519.919,199.134C519.919,199.134 547.823,198.756 530.976,275.828C530.976,275.828 529.396,211.474 514.654,219.408" style="fill:none;stroke:black;stroke-width:3px;"/>
            <path id="path3215" d="M444.247,199.134C444.247,199.134 416.343,198.756 433.19,275.828C433.19,275.828 434.77,211.474 449.512,219.408" style="fill:none;stroke:black;stroke-width:3px;"/>
            <path id="path3237" d="M454.25,108.417C454.25,108.417 468.202,78.941 479.785,71.214C491.368,63.488 454.513,108.989 454.25,108.417Z" style="fill:white;"/>
            <path id="path3239" d="M446.032,186.743C445.208,186.245 440.11,145.393 452.733,119.966C460.517,113.156 471.106,116.737 470.603,119.561C466.244,144.024 450.936,189.703 446.032,186.743L446.032,186.743Z" style="fill:white;"/>
            <path id="path2382" d="M481.668,67.248C473.644,74.191 411.969,132.377 458.686,243.805L505.399,243.805C552.116,132.378 490.441,74.2 482.417,67.257L481.668,67.248L481.668,67.248Z" style="fill:none;stroke:black;stroke-width:3px;"/>
        </g>
    </g>
</svg>
