<?xml version="1.0" encoding="UTF-8"?>
<svg viewBox="0 0 744.09448819 1052.3622047" xmlns="http://www.w3.org/2000/svg">
 <path d="m83.571 400.93h421.43a35 35 0 0 1 35 35v335.71a35 35 0 0 1 -35 35h-421.43a35 35 0 0 1 -35 -35v-335.71a35 35 0 0 1 35 -35" fill="#fff5ca" stroke="#000" stroke-linecap="square" stroke-linejoin="round" stroke-width="6.1"/>
 <path d="m136.58 515.67c17.969 3.3344 28.679 23.885 39.524 37.86 16.242 24.07 33.455 47.51 49.269 71.874 10.125 15.846 15.873 33.547 20.655 51.553-3.501 13.423 1.6207-0.4608 6.5853-8.3966 9.814-19.533 18.778-39.495 28.132-59.258 14.844-29.267 29.885-58.453 45.618-87.257 15.964-25.89 29.11-53.603 47.149-78.133 19.45-24.366 39.557-48.193 59.109-72.48 16.964-21.062 33.587-42.438 50.956-63.171 17.43-18.157 35.995-35.141 54.462-52.219 9.0873-8.307 19.007-15.585 29.026-22.704l5.9154 97.806c-9.5963 6.7013-19.157 13.475-28.094 21.057-19.386 15.246-38.056 31.577-53.059 51.299-17.31 19.776-34.748 39.407-51.138 59.969-20.581 23.675-41.062 47.567-58.162 73.943-15.726 24.712-33.105 48.472-46.515 74.609-16.321 29.416-31.66 59.422-44.441 90.566-8.6633 20.932-17.634 41.731-28.754 61.514-6.8899 13.243-20.938 35.6-29.835 11.389-4.3698-18.947-8.1988-38.088-17.642-55.365-13.523-25.905-29.664-50.423-47.755-73.368-5.3753-6.5562-30.992-27.024-22.733-25.967l-8.273-105.12z" fill="#e9e9e9" fill-opacity=".50526"/>
 <path d="m138.8 456.31c17.969 3.3344 28.679 23.885 39.524 37.86 16.242 24.07 33.455 47.51 49.269 71.874 10.125 15.846 15.873 33.547 20.655 51.553-3.501 13.423 1.6207-0.4608 6.5853-8.3966 9.814-19.533 18.778-39.495 28.132-59.258 14.844-29.267 29.885-58.453 45.618-87.257 15.964-25.89 29.11-53.603 47.149-78.133 19.45-24.366 39.557-48.193 59.109-72.48 16.964-21.062 33.587-42.438 50.956-63.171 17.43-18.157 35.995-35.141 54.462-52.219 9.0873-8.307 19.007-15.585 29.026-22.704l5.9154 97.806c-9.5964 6.7013-19.157 13.475-28.094 21.057-19.386 15.246-38.056 31.577-53.059 51.299-17.31 19.776-34.748 39.407-51.138 59.969-20.581 23.675-41.062 47.567-58.162 73.943-15.726 24.712-33.105 48.472-46.515 74.609-16.321 29.416-31.66 59.422-44.441 90.566-8.6633 20.932-17.634 41.731-28.754 61.514-6.8899 13.243-20.938 35.601-29.835 11.389-4.3698-18.947-8.1988-38.088-17.642-55.365-13.523-25.905-29.664-50.423-47.755-73.368-5.3753-6.5562-30.992-27.024-22.733-25.967l-8.273-105.12z" fill="#ff0505" opacity=".89423" stroke="#000" stroke-width="6.1"/>
</svg>
