<?xml version="1.0" encoding="UTF-8"?>
<svg viewBox="0 0 158.08 170.43" xmlns="http://www.w3.org/2000/svg">
 <g transform="matrix(1.3315 0 0 1.3315 -42.115 49.948)" fill="#56aaff" stroke="#56aaff" stroke-linecap="round">
  <g stroke-linejoin="round">
   <path d="m99.715 30.999c-1.1305-3.8164-3-11.514-9-11.514s-8 7.6757-9 11.514l-16 53.73c5 7.6757 45 7.6757 49.915 0l-15.915-53.73z" stroke-width="1.25"/>
   <path d="m98.64 1.4778c0 4.1421-3.3579 7.5-7.5 7.5s-7.5-3.3578-7.5-7.5 3.3578-7.5 7.5-7.5c4.1421 0 7.5 3.3578 7.5 7.5z" stroke-width="5.46"/>
  </g>
  <g fill-rule="evenodd" stroke-width="6.37">
   <path d="m105.93-10.176s4.0704 4.1713 4.0704 12.102m-4.0704 12.052s4.0704-4.1713 4.0704-12.102"/>
   <path d="m119.82-22.252s8.1408 8.3426 8.1408 24.204m-8.1408 24.103s8.1408-8.3426 8.1408-24.204"/>
   <path d="m134.96-34.329s12.211 12.514 12.211 36.305m-12.211 36.155s12.211-12.514 12.211-36.305"/>
   <path d="m75.64-10.176s-4.0704 4.1713-4.0704 12.102m4.0704 12.052s-4.0704-4.1713-4.0704-12.102"/>
   <path d="m62.171-22.252s-8.1408 8.3426-8.1408 24.204m8.1408 24.103s-8.1408-8.3426-8.1408-24.204"/>
   <path d="m47.027-34.329s-12.211 12.514-12.211 36.305m12.211 36.155s-12.211-12.514-12.211-36.305"/>
  </g>
 </g>
</svg>
