<?xml version="1.0" encoding="utf-8"?>
<!-- Generator: Adobe Illustrator 26.5.0, SVG Export Plug-In . SVG Version: 6.00 Build 0)  -->
<!DOCTYPE svg PUBLIC "-//W3C//DTD SVG 1.1//EN" "http://www.w3.org/Graphics/SVG/1.1/DTD/svg11.dtd" [
	<!ENTITY ns_extend "http://ns.adobe.com/Extensibility/1.0/">
	<!ENTITY ns_ai "http://ns.adobe.com/AdobeIllustrator/10.0/">
	<!ENTITY ns_graphs "http://ns.adobe.com/Graphs/1.0/">
	<!ENTITY ns_vars "http://ns.adobe.com/Variables/1.0/">
	<!ENTITY ns_imrep "http://ns.adobe.com/ImageReplacement/1.0/">
	<!ENTITY ns_sfw "http://ns.adobe.com/SaveForWeb/1.0/">
	<!ENTITY ns_custom "http://ns.adobe.com/GenericCustomNamespace/1.0/">
	<!ENTITY ns_adobe_xpath "http://ns.adobe.com/XPath/1.0/">
]>
<svg version="1.1" id="Layer_1" xmlns:x="&ns_extend;" xmlns:i="&ns_ai;" xmlns:graph="&ns_graphs;"
	 xmlns="http://www.w3.org/2000/svg" xmlns:xlink="http://www.w3.org/1999/xlink" x="0px" y="0px" viewBox="0 0 612 448.6667"
	 style="enable-background:new 0 0 612 448.6667;" xml:space="preserve">
<style type="text/css">
	.st0{fill:#414042;}
	.st1{fill:#2B2B2B;}
	.st2{fill:#121212;}
	.st3{fill:#1B1B1B;}
	.st4{fill:#2B2A2B;}
	.st5{fill:#D1D3D4;}
	.st6{fill:none;stroke:#414042;stroke-miterlimit:10;}
</style>
<metadata>
	<sfw  xmlns="&ns_sfw;">
		<slices></slices>
		<sliceSourceBounds  bottomLeftOrigin="true" height="402.9327" width="497.9767" x="57.0116" y="-426.6326"></sliceSourceBounds>
	</sfw>
</metadata>
<path class="st0" d="M288.1001,372.6462c0-30.1768,32.4869-55.5547,76.7213-63.3042c-0.1681-1.7484-0.3035-3.3204-0.3892-4.5645
	H247.5636c-0.8086,12.2157-4.8839,49.8412-34.8187,79.5783c-16.3237,16.2171-35.229,17.6621-34.8061,23.622
	c0.4842,7.0349,26.1008,14.6451,128.0655,18.6547c8.886-0.3531,16.9886-0.7389,24.7458-1.1449
	C304.9206,413.5023,288.1001,394.3264,288.1001,372.6462"/>
<path class="st1" d="M434.0651,407.9778c0.4399-5.9599-19.4239-7.4049-36.5908-23.622
	c-28.2401-26.7034-34.5678-59.7083-36.1729-75.0139c-46.4936,7.7495-80.6347,33.1274-80.6347,63.3086
	c0,21.6759,17.6766,40.8518,44.8292,52.8371C410.9186,421.2846,433.5863,414.4018,434.0651,407.9778"/>
<path class="st2" d="M91.8304,23.6999c-19.1481,0-34.8187,15.6713-34.8187,34.8187v237.4796V304.7h65.8279L398.4666,23.6999H91.8304
	z"/>
<path class="st3" d="M518.3824,23.6999H390.4326L100.6667,304.7h218.4532l235.8685-199.2504v-46.931
	C554.9883,39.3711,538.5134,23.6999,518.3824,23.6999"/>
<polygon class="st4" points="302,304.7 554.9883,304.7 554.9883,87.3333 "/>
<path class="st5" d="M57.02,304.7v27.9763c0,19.1473,15.6664,34.8103,34.8145,34.8103h428.3307
	c19.1524,0,34.8188-15.663,34.8188-34.8103V304.7H57.02z"/>
<rect x="87.4752" y="53.2488" width="436.0072" height="251.4512"/>
<path d="M319.9347,335.525c0,7.7-6.239,13.9391-13.9389,13.9391c-7.6915,0-13.9263-6.2391-13.9263-13.9391
	c0-7.7007,6.2348-13.9354,13.9263-13.9354C313.6957,321.5896,319.9347,327.8244,319.9347,335.525"/>
<path class="st6" d="M319.9347,335.525c0,7.7-6.239,13.9391-13.9389,13.9391c-7.6915,0-13.9263-6.2391-13.9263-13.9391
	c0-7.7007,6.2348-13.9354,13.9263-13.9354C313.6957,321.5896,319.9347,327.8244,319.9347,335.525z"/>
<g>
</g>
<g>
</g>
<g>
</g>
<g>
</g>
<g>
</g>
<g>
</g>
</svg>
